<svg preserveAspectRatio="none" width="100%" height="100%" overflow="visible" style="display: block;" viewBox="0 0 14 14.0001" fill="none" xmlns="http://www.w3.org/2000/svg">
<g id="Answer">
<path id="Union" d="M5.66897 1.15148C2.46557 1.5896 0 4.28497 0 7.54462C0 11.1099 2.94953 14.0001 6.58797 14.0001C9.92355 14.0001 12.6801 11.571 13.1159 8.4196L5.66897 8.4194L5.66897 1.15148Z" fill="var(--fill-0, #777E8B)"/>
<path id="Union_2" d="M7.28868 0.605736V0C7.28868 0 7.63546 0.0231999 7.80647 0.0437585C9.44712 0.240996 10.9114 0.978817 12.0018 2.06186C13.0433 3.09627 13.75 4.45181 13.9453 5.96211C13.9815 6.24145 14 6.52543 14 6.81285H10.7342C10.7342 6.8129 10.7342 6.8128 10.7342 6.81285L7.28778 6.8127V0.605648L7.28868 0.605736Z" fill="var(--fill-0, #777E8B)"/>
</g>
</svg>
