<svg preserveAspectRatio="none" width="100%" height="100%" overflow="visible" style="display: block;" viewBox="0 0 9.33333 12.4444" fill="none" xmlns="http://www.w3.org/2000/svg">
<path id="Path" fill-rule="evenodd" clip-rule="evenodd" d="M9.33333 6.22222C9.33333 7.05185 7.29555 7.95062 4.66667 7.95062C2.04556 7.95062 0.0155556 7.05185 0 6.23605V3.83012C1.15111 4.46617 2.83111 4.83951 4.66667 4.83951C6.50222 4.83951 8.18222 4.46617 9.33333 3.83012V6.22222ZM9.33333 8.32395V10.7437C9.30222 11.6839 7.22555 12.4444 4.66667 12.4444C2.10778 12.4444 0.0311111 11.6839 0 10.7368V8.31704C1.15111 8.96 2.83111 9.33333 4.66667 9.33333C6.50222 9.33333 8.18222 8.96 9.33333 8.32395ZM4.66667 3.45679C2.09222 3.45679 0 2.68247 0 1.72839C0 0.774321 2.09222 0 4.66667 0C7.24111 0 9.33333 0.774321 9.33333 1.72839C9.33333 2.68247 7.24111 3.45679 4.66667 3.45679Z" fill="var(--fill-0, #777E8B)"/>
</svg>
