<svg preserveAspectRatio="none" width="100%" height="100%" overflow="visible" style="display: block;" viewBox="0 0 14 14" fill="none" xmlns="http://www.w3.org/2000/svg">
<g id="Pinboard">
<path id="Rectangle 147626" d="M9.09996 6.64408C9.09996 6.11988 9.51783 5.69493 10.0333 5.69493H13.0666C13.5821 5.69493 14 6.11988 14 6.64408V13.0509C14 13.5751 13.5821 14 13.0666 14H10.0333C9.51783 14 9.09996 13.5751 9.09996 13.0509L9.09996 6.64408Z" fill="var(--fill-0, #777E8B)"/>
<path id="Rectangle 147625" d="M0 0.949152C0 0.42495 0.417867 0 0.933332 0H7.23332C7.74879 0 8.16666 0.42495 8.16666 0.949151V13.0508C8.16666 13.575 7.74879 14 7.23332 14H0.933332C0.417867 14 0 13.575 0 13.0508L0 0.949152Z" fill="var(--fill-0, #777E8B)"/>
<path id="Rectangle 147627" d="M9.09996 0.949152C9.09996 0.42495 9.51783 0 10.0333 0L13.0666 5.65747e-08C13.5821 5.65747e-08 14 0.42495 14 0.949151V3.55932C14 4.08352 13.5821 4.50847 13.0666 4.50847H10.0333C9.51783 4.50847 9.09996 4.08352 9.09996 3.55932V0.949152Z" fill="var(--fill-0, #777E8B)"/>
</g>
</svg>
