<svg preserveAspectRatio="none" width="100%" height="100%" overflow="visible" style="display: block;" viewBox="0 0 14.7459 14.7262" fill="none" xmlns="http://www.w3.org/2000/svg">
<path id="Path" fill-rule="evenodd" clip-rule="evenodd" d="M13.1075 7.36312C13.1075 10.526 10.54 13.09 7.37295 13.09C4.20587 13.09 1.63843 10.526 1.63843 7.36312C1.63843 4.20026 4.20587 1.63625 7.37295 1.63625C10.54 1.63625 13.1075 4.20026 13.1075 7.36312ZM14.7459 7.36312C14.7459 11.4297 11.4449 14.7262 7.37295 14.7262C3.30098 14.7262 0 11.4297 0 7.36312C0 3.29658 3.30098 0 7.37295 0C11.4449 0 14.7459 3.29658 14.7459 7.36312ZM6.55374 8.99937V3.2725H8.19217V7.36312H10.6498V8.99937H6.55374Z" fill="var(--fill-0, #777E8B)"/>
</svg>
