<svg preserveAspectRatio="none" width="100%" height="100%" overflow="visible" style="display: block;" viewBox="0 0 13.5444 13.2222" fill="none" xmlns="http://www.w3.org/2000/svg">
<path id="Path" fill-rule="evenodd" clip-rule="evenodd" d="M10.1111 5.83333C10.1111 8.19588 8.19588 10.1111 5.83333 10.1111C3.47078 10.1111 1.55556 8.19588 1.55556 5.83333C1.55556 3.47078 3.47078 1.55556 5.83333 1.55556C8.19588 1.55556 10.1111 3.47078 10.1111 5.83333ZM9.55097 10.3287C8.5416 11.1644 7.24612 11.6667 5.83333 11.6667C2.61167 11.6667 0 9.05499 0 5.83333C0 2.61167 2.61167 0 5.83333 0C9.05499 0 11.6667 2.61167 11.6667 5.83333C11.6667 7.08103 11.2749 8.23723 10.6078 9.18567L13.5444 12.1223L12.4444 13.2222L9.55097 10.3287Z" fill="var(--fill-0, #777E8B)"/>
</svg>
