<svg preserveAspectRatio="none" width="100%" height="100%" overflow="visible" style="display: block;" viewBox="0 0 14 14" fill="none" xmlns="http://www.w3.org/2000/svg">
<path id="Path" fill-rule="evenodd" clip-rule="evenodd" d="M5.97905 0.0824954C5.95629 0.0850535 5.93471 0.0940064 5.91682 0.108318C5.89893 0.122629 5.88546 0.141714 5.87797 0.163363C5.82009 0.315292 5.79328 0.478872 5.76627 0.643679C5.74296 0.785897 5.7195 0.92903 5.6758 1.06638C5.56798 1.35615 5.37929 1.63245 4.86713 1.84135C4.34823 2.057 4.01803 1.99635 3.74173 1.86157C3.61279 1.79867 3.49413 1.71523 3.37546 1.63179C3.23985 1.53643 3.10423 1.44106 2.95328 1.37637C2.93367 1.3677 2.91212 1.36437 2.89081 1.36674C2.8695 1.36911 2.8492 1.37708 2.83198 1.38985C2.28113 1.79716 1.79298 2.28304 1.38311 2.83198C1.37034 2.8492 1.36237 2.8695 1.36 2.89081C1.35763 2.91212 1.36096 2.93367 1.36963 2.95328C1.43432 3.10423 1.52969 3.23985 1.62505 3.37546C1.70849 3.49413 1.79194 3.61279 1.85483 3.74173C1.98961 4.01803 2.057 4.34823 1.83462 4.86039C1.62571 5.37929 1.34941 5.56798 1.05964 5.66906C0.916775 5.71777 0.769218 5.743 0.622244 5.76814C0.464175 5.79518 0.306781 5.8221 0.156624 5.87797C0.13589 5.88494 0.117428 5.89739 0.103192 5.914C0.0889565 5.93061 0.0794765 5.95076 0.0757566 5.97231C-0.0252522 6.65372 -0.0252522 7.34629 0.0757566 8.02769C0.0824955 8.07486 0.11619 8.10855 0.156624 8.12877C0.308553 8.18665 0.472132 8.21346 0.636939 8.24047C0.779158 8.26378 0.922291 8.28723 1.05964 8.33094C1.34941 8.43876 1.62571 8.62745 1.83462 9.13961C2.05026 9.65851 1.98961 9.98871 1.85483 10.265C1.79194 10.3939 1.70849 10.5126 1.62505 10.6313C1.52969 10.7669 1.43432 10.9025 1.36963 11.0535C1.36096 11.0731 1.35763 11.0946 1.36 11.1159C1.36237 11.1372 1.37034 11.1575 1.38311 11.1748C1.78744 11.7274 2.27939 12.2193 2.83198 12.6236C2.86567 12.6506 2.91284 12.6573 2.95328 12.6371C3.10423 12.5724 3.23985 12.4771 3.37546 12.3817C3.49413 12.2982 3.61279 12.2148 3.74173 12.1519C4.01803 12.0171 4.34823 11.9497 4.86039 12.1721C5.37929 12.381 5.56798 12.6573 5.66906 12.9471C5.71777 13.09 5.743 13.2375 5.76814 13.3845C5.79518 13.5426 5.8221 13.7 5.87797 13.8501C5.89145 13.8905 5.93188 13.9175 5.97231 13.9242C6.65372 14.0253 7.34629 14.0253 8.02769 13.9242C8.04897 13.9229 8.06953 13.9159 8.08727 13.9041C8.10502 13.8923 8.11933 13.876 8.12877 13.8569C8.18639 13.702 8.21322 13.5375 8.2401 13.3727C8.26353 13.2291 8.28701 13.0852 8.33094 12.9471C8.43876 12.6573 8.62745 12.381 9.13961 12.1721C9.65851 11.9565 9.98871 12.0171 10.265 12.1519C10.3939 12.2148 10.5126 12.2982 10.6313 12.3817C10.7669 12.4771 10.9025 12.5724 11.0535 12.6371C11.0939 12.6573 11.1411 12.6506 11.1748 12.6236C11.7261 12.2143 12.2143 11.7261 12.6236 11.1748C12.6377 11.1568 12.6464 11.1353 12.6488 11.1127C12.6511 11.09 12.6471 11.0672 12.6371 11.0467C12.5734 10.9017 12.48 10.7696 12.3861 10.6369C12.3012 10.5168 12.2159 10.3962 12.1519 10.265C12.0171 9.98871 11.9497 9.65851 12.1721 9.13961C12.381 8.62745 12.6573 8.43876 12.9471 8.33094C13.0851 8.28704 13.2274 8.26357 13.3693 8.24016C13.5325 8.21325 13.6952 8.18643 13.8501 8.12877C13.8689 8.11984 13.8854 8.10667 13.8983 8.0903C13.9111 8.07393 13.92 8.05481 13.9242 8.03443C14.0253 7.35302 14.0253 6.66045 13.9242 5.97905C13.9229 5.95777 13.9159 5.93721 13.9041 5.91947C13.8923 5.90172 13.876 5.88741 13.8569 5.87797C13.702 5.82035 13.5375 5.79352 13.3727 5.76664C13.2291 5.74321 13.0852 5.71973 12.9471 5.6758C12.6573 5.56798 12.381 5.37929 12.1721 4.86713C11.9565 4.34823 12.0171 4.01803 12.1519 3.74173C12.2148 3.61279 12.2982 3.49413 12.3817 3.37546C12.4771 3.23985 12.5724 3.10423 12.6371 2.95328C12.6458 2.93367 12.6491 2.91212 12.6467 2.89081C12.6444 2.8695 12.6364 2.8492 12.6236 2.83198C12.2143 2.28065 11.7261 1.79248 11.1748 1.38311C11.1575 1.37034 11.1372 1.36237 11.1159 1.36C11.0946 1.35763 11.0731 1.36096 11.0535 1.36963C10.9025 1.43432 10.7669 1.52969 10.6313 1.62505C10.5126 1.70849 10.3939 1.79194 10.265 1.85483C9.98871 1.98961 9.65851 2.057 9.13961 1.83462C8.62745 1.62571 8.43876 1.34941 8.33094 1.05964C8.28704 0.921685 8.26357 0.779355 8.24016 0.637399C8.21325 0.474241 8.18643 0.311578 8.12877 0.156624C8.1218 0.13589 8.10935 0.117428 8.09274 0.103192C8.07613 0.0889561 8.05598 0.0794765 8.03443 0.0757566C7.35303 -0.0252522 6.66045 -0.0252522 5.97905 0.0757566V0.0824954ZM7 10.1111C8.71822 10.1111 10.1111 8.71822 10.1111 7C10.1111 5.28178 8.71822 3.88889 7 3.88889C5.28178 3.88889 3.88889 5.28178 3.88889 7C3.88889 8.71822 5.28178 10.1111 7 10.1111Z" fill="var(--fill-0, #777E8B)"/>
</svg>
