<svg preserveAspectRatio="none" width="100%" height="100%" overflow="visible" style="display: block;" viewBox="0 0 41.595 31.4311" fill="none" xmlns="http://www.w3.org/2000/svg">
<g id="Group">
<path id="Vector" d="M13.8466 15.1552C13.823 15.1552 12.5411 16.1682 11.2545 17.1594L10.2742 17.3722C10.2742 17.3722 10.1364 17.6803 9.91181 18.1809C9.28102 18.6517 8.79176 18.998 8.66579 19.0367C8.54737 19.073 8.83234 19.2665 9.30791 19.5288C8.14493 22.1237 6.34313 26.142 6.31719 26.1887C6.27897 26.2576 4.85792 30.7463 4.85792 30.7463H6.6682C6.6682 30.7463 7.11452 27.1738 8.98001 25.5121C10.025 24.5813 12.8412 22.2756 12.8412 22.2756L13.2418 21.2844C13.923 19.8496 14.9539 18.4125 16.3872 18.2582C17.2893 18.1611 18.6594 18.3984 19.913 18.7083C19.913 18.7083 20.6344 15.9526 20.6801 15.9191C20.7259 15.8856 13.8914 15.1562 13.8466 15.1562V15.1552Z" fill="var(--fill-0, white)" stroke="var(--stroke-0, #777E8B)" stroke-width="0.485278" stroke-miterlimit="10"/>
<path id="Vector_2" d="M16.387 18.2573C17.2801 18.1611 18.6323 18.3932 19.8759 18.6984L19.9207 18.6758C19.9788 18.454 20.3279 17.124 20.5327 16.3951L18.227 15.6266C16.2775 15.411 13.8728 15.1552 13.8459 15.1552C13.8223 15.1552 12.5404 16.1682 11.2538 17.1594L10.2734 17.3722C10.2734 17.3722 10.1357 17.6803 9.91108 18.1809C9.43409 18.5366 9.03873 18.8211 8.81934 18.9556V19.2372C8.93635 19.3174 9.10431 19.4165 9.30718 19.5283C9.15385 19.8704 8.98919 20.2374 8.81934 20.6168V23.2621L12.8405 22.2751L13.241 21.2839C13.9223 19.8491 14.9532 18.4121 16.3865 18.2578L16.387 18.2573Z" fill="var(--fill-0, #777E8B)" stroke="var(--stroke-0, #777E8B)" stroke-width="0.485278" stroke-miterlimit="10"/>
<g id="Vector_3">
<path d="M25.4512 16.5511L26.366 19.4229L25.7248 30.7451H27.3808L28.6537 24.3489L29.4468 21.5399L32.3899 14.9809" fill="var(--fill-0, white)"/>
<path d="M25.4512 16.5511L26.366 19.4229L25.7248 30.7451H27.3808L28.6537 24.3489L29.4468 21.5399L32.3899 14.9809" stroke="var(--stroke-0, #777E8B)" stroke-width="0.485278" stroke-miterlimit="10"/>
</g>
<path id="Vector_4" d="M31.8817 15.0971L30.1086 15.4982C29.6123 15.8846 28.9032 16.4385 28.1922 16.9862L27.2118 17.199C27.2118 17.199 27.074 17.5071 26.8495 18.0077C26.5588 18.2242 26.2993 18.4143 26.0903 18.5606L26.3654 19.424L26.2111 22.9776L29.2514 22.2312L29.4462 21.5409L32.3171 15.1438C32.1638 15.1273 32.018 15.1118 31.8812 15.0971H31.8817Z" fill="var(--fill-0, #777E8B)" stroke="var(--stroke-0, #777E8B)" stroke-width="0.485278" stroke-miterlimit="10"/>
<path id="Vector_5" d="M0.23365 7.34245C0.103906 7.54721 0.232235 7.81755 0.473323 7.84539C1.80945 8.00014 5.35643 8.51723 7.04075 9.78589C9.13978 11.3669 10.7137 13.8188 10.7137 13.8188L14.4499 10.4804C14.4499 10.4804 12.9958 11.5551 10.3438 9.87789C7.59605 8.14026 4.22742 6.68099 0.466246 7.19242C0.370471 7.20563 0.285548 7.2613 0.234122 7.34292L0.23365 7.34245Z" fill="var(--fill-0, #777E8B)" stroke="var(--stroke-0, #777E8B)" stroke-width="0.363958" stroke-miterlimit="10"/>
<path id="Vector_6" d="M9.94144 12.7463C10.5873 12.4929 11.1653 12.0749 11.6102 11.5205C11.8178 11.262 11.9905 10.9813 12.1268 10.685C11.6121 10.5515 11.0162 10.3033 10.3429 9.87726C10.1236 9.73855 9.89993 9.60173 9.67252 9.46774C9.09693 9.80837 8.577 10.2292 8.12549 10.7142C8.86291 11.4181 9.48946 12.1622 9.94097 12.7463H9.94144Z" fill="var(--fill-0, #777E8B)" stroke="var(--stroke-0, #777E8B)" stroke-width="0.363958" stroke-miterlimit="10"/>
<path id="Vector_7" d="M3.64426 30.7458C3.64426 30.7458 4.29062 26.167 8.81941 23.2621C9.26714 22.9748 9.63845 22.5832 9.89322 22.1166C10.7047 20.6304 12.7547 17.3599 15.0731 17.3788C18.0723 17.4033 22.67 21.0909 27.3658 19.8128L31.4105 16.2908C32.3664 15.4586 32.8499 14.2149 32.7282 12.9533C32.6268 11.9022 32.6636 10.6425 33.217 9.80645C34.0247 8.58591 35.383 6.74873 36.0572 5.84665C36.3106 5.50743 36.7093 5.30739 37.1329 5.30739H38.7385C39.1796 5.30739 39.5967 5.10593 39.8708 4.7601L41.2456 3.02719C41.4848 2.72571 41.298 2.27845 40.9149 2.2374L38.6502 1.99395C38.1728 1.94253 37.7274 1.72927 37.3877 1.38958L36.5786 0.580446C36.3625 0.364363 36.069 0.242639 35.7633 0.242639H33.3444C32.9717 0.242639 32.6225 0.424753 32.4098 0.730478L28.9487 5.69898C28.4443 6.42272 27.7475 6.99123 26.9374 7.33942L22.2279 9.36343L13.5496 10.0301C9.82009 10.3165 6.98883 13.5077 7.1483 17.2443L7.20633 18.6074L6.2231 22.369L3.42063 25.5404L1.97315 30.7453H3.64473L3.64426 30.7458Z" fill="var(--fill-0, white)" stroke="var(--stroke-0, #777E8B)" stroke-width="0.485278" stroke-miterlimit="10"/>
<path id="Vector_8" d="M12.489 13.0254C13.1599 12.1898 13.4694 11.1207 13.3486 10.0559L13.3476 10.0488C13.3316 10.0516 13.316 10.053 13.3005 10.0535C10.6358 10.3536 8.46407 12.1417 7.5752 14.5295H9.35246C10.5716 14.5295 11.7251 13.976 12.4885 13.0254H12.489Z" fill="var(--fill-0, #777E8B)" stroke="var(--stroke-0, #777E8B)" stroke-width="0.363958" stroke-miterlimit="10"/>
<path id="Vector_9" d="M27.6035 7.19611L27.569 7.01022C27.368 7.13524 27.1581 7.24564 26.9387 7.34L22.2292 9.36402L15.1494 9.90753L15.9774 11.0828C16.6228 11.999 17.7717 12.4142 18.8535 12.1221L19.314 11.9981C20.2061 11.757 21.1597 11.9952 21.8338 12.6274L22.3344 13.0969C23.1572 13.8683 24.3768 14.0391 25.3799 13.5224C25.9243 13.2422 26.3556 12.7836 26.6018 12.2231C27.5681 10.7379 27.9266 8.93845 27.6039 7.19658L27.6035 7.19611Z" fill="var(--fill-0, #777E8B)" stroke="var(--stroke-0, #777E8B)" stroke-width="0.363958" stroke-miterlimit="10"/>
<path id="Vector_10" d="M23.5386 19.9168C23.3362 18.6986 22.3502 17.6913 21.1475 17.3582C20.2106 17.0988 19.2061 17.2851 18.4248 17.8635L18.0752 18.1221C19.7199 18.7397 21.5816 19.57 23.5386 19.9168Z" fill="var(--fill-0, #777E8B)" stroke="var(--stroke-0, #777E8B)" stroke-width="0.485278" stroke-linecap="round" stroke-linejoin="round"/>
<path id="Vector_11" d="M35.4073 5.15405V0.242639H33.345C32.9761 0.242639 32.6303 0.42145 32.417 0.721985V3.19704C32.417 3.54947 32.5826 3.88114 32.8638 4.09345L34.7246 5.49516C35.0058 5.707 35.4077 5.50649 35.4077 5.15452L35.4073 5.15405Z" fill="var(--fill-0, #777E8B)" stroke="var(--stroke-0, #777E8B)" stroke-width="0.485278" stroke-miterlimit="10"/>
<path id="Vector_12" d="M40.9148 2.23892L40.0562 2.14645L40.2062 2.68477C40.2284 2.7645 40.2751 2.8348 40.3392 2.8867L40.9615 3.38633L41.2456 3.02871C41.4848 2.72723 41.2979 2.27997 40.9148 2.23892Z" fill="var(--fill-0, #777E8B)" stroke="var(--stroke-0, #777E8B)" stroke-width="0.485278" stroke-miterlimit="10"/>
<g id="Vector_13">
<path d="M24.9896 16.5504L25.4505 19.4222L23.1816 30.7444H24.8377L26.9598 24.3483L28.1969 21.5392L32.0585 15.562" fill="var(--fill-0, white)"/>
<path d="M24.9896 16.5504L25.4505 19.4222L23.1816 30.7444H24.8377L26.9598 24.3483L28.1969 21.5392L32.0585 15.562" stroke="var(--stroke-0, #777E8B)" stroke-width="0.485278" stroke-miterlimit="10"/>
</g>
<path id="Vector_14" d="M28.3493 5.41041L27.396 6.78463L33.1604 10.7835L34.1137 9.4093L28.3493 5.41041Z" fill="var(--fill-0, #777E8B)" stroke="var(--stroke-0, #777E8B)" stroke-width="0.545937" stroke-miterlimit="10"/>
</g>
</svg>
