<svg preserveAspectRatio="none" width="100%" height="100%" overflow="visible" style="display: block;" viewBox="0 0 12 12" fill="none" xmlns="http://www.w3.org/2000/svg">
<g id="answer-s" clip-path="url(#clip0_0_1887)">
<g id="Vector">
<path d="M4.85912 0.986982C2.11334 1.36251 0 3.67283 0 6.46682C0 9.52274 2.52817 12.0001 5.64683 12.0001C8.5059 12.0001 10.8687 9.91799 11.2422 7.2168L4.85912 7.21663L4.85912 0.986982Z" fill="#C0C6CF"/>
<path d="M6.24744 0.519202V0C6.24744 0 6.54468 0.0198856 6.69126 0.0375073C8.09753 0.206568 9.35265 0.838986 10.2873 1.7673C11.18 2.65395 11.7857 3.81584 11.9532 5.11038C11.9841 5.34982 12 5.59322 12 5.83958H9.20072C9.20072 5.83962 9.20072 5.83954 9.20072 5.83958L6.24667 5.83946V0.519127L6.24744 0.519202Z" fill="var(--fill-0, #C0C6CF)"/>
</g>
</g>
<defs>
<clipPath id="clip0_0_1887">
<rect width="12" height="12" fill="white"/>
</clipPath>
</defs>
</svg>
