<svg preserveAspectRatio="none" width="100%" height="100%" overflow="visible" style="display: block;" viewBox="0 0 12 12" fill="none" xmlns="http://www.w3.org/2000/svg">
<g id="memory-l">
<path id="neurology" d="M4.78627 11.074C4.33742 11.074 3.94267 10.9333 3.60201 10.652C3.26135 10.3706 3.04309 10.0202 2.94724 9.60068C2.31569 9.59987 1.77793 9.37662 1.33394 8.93093C0.88996 8.48523 0.667969 7.94436 0.667969 7.30831C0.667969 7.08934 0.69785 6.87486 0.757611 6.66489C0.817283 6.45491 0.909311 6.25875 1.03369 6.0764C0.914351 5.89406 0.823583 5.69974 0.761392 5.49346C0.69911 5.28726 0.667969 5.07071 0.667969 4.84382C0.667969 4.2534 0.864535 3.74286 1.25767 3.3122C1.65071 2.88144 2.13564 2.63263 2.71247 2.56576C2.78528 2.10161 3.00097 1.71235 3.35954 1.39797C3.7182 1.0835 4.14293 0.92627 4.63371 0.92627C4.89931 0.92627 5.14709 0.980182 5.37704 1.088C5.60691 1.19583 5.815 1.3415 6.0013 1.52501C6.18365 1.34168 6.39133 1.19605 6.62435 1.08814C6.85736 0.980226 7.10554 0.92627 7.36889 0.92627C7.85734 0.92627 8.28048 1.08251 8.63834 1.395C8.99619 1.70749 9.21152 2.09576 9.28433 2.55982C9.86107 2.63182 10.3469 2.88306 10.742 3.31355C11.1371 3.74403 11.3346 4.25412 11.3346 4.84382C11.3346 5.07791 11.3022 5.30139 11.2374 5.51425C11.1726 5.72701 11.078 5.92457 10.9537 6.10691C11.0527 6.27909 11.1269 6.45999 11.1764 6.64963C11.2259 6.83918 11.2507 7.03354 11.2507 7.23271C11.2507 7.85184 11.0392 8.38074 10.6161 8.81941C10.1931 9.25809 9.67598 9.49304 9.06468 9.52427C8.979 9.96411 8.76429 10.3324 8.42057 10.629C8.07676 10.9257 7.67535 11.074 7.21634 11.074C6.99133 11.074 6.77564 11.035 6.56926 10.9571C6.3628 10.8792 6.17348 10.7689 6.0013 10.626C5.82517 10.7689 5.63445 10.8792 5.42916 10.9571C5.22377 11.035 5.00947 11.074 4.78627 11.074ZM6.67862 2.89503V9.18149C6.67862 9.33495 6.72992 9.46293 6.83252 9.56545C6.93503 9.66796 7.06383 9.71922 7.2189 9.71922C7.36669 9.71922 7.49184 9.66499 7.59435 9.55654C7.69686 9.44817 7.7501 9.31924 7.75406 9.16975C7.62095 9.09775 7.4998 9.01373 7.39063 8.9177C7.28145 8.82166 7.17912 8.70849 7.08363 8.57816C6.97329 8.42165 6.93319 8.25231 6.96334 8.07014C6.99349 7.88798 7.08682 7.74172 7.24334 7.63138C7.39985 7.52104 7.56919 7.47963 7.75136 7.50718C7.93352 7.53481 8.07978 7.62688 8.19012 7.78339C8.27896 7.90706 8.38948 8.00332 8.52169 8.07217C8.65382 8.14102 8.79764 8.17545 8.95317 8.17545C9.21246 8.17545 9.43441 8.08315 9.619 7.89855C9.8036 7.71396 9.8959 7.49201 9.8959 7.23271C9.8959 7.18906 9.89365 7.14536 9.88915 7.10162C9.88465 7.05788 9.8734 7.01414 9.8554 6.9704C9.7329 7.02476 9.60294 7.06684 9.4655 7.09663C9.32798 7.12633 9.18519 7.14118 9.03714 7.14118C8.84849 7.14118 8.68847 7.07543 8.55706 6.94394C8.42557 6.81244 8.35982 6.65242 8.35982 6.46386C8.35982 6.27522 8.42557 6.11515 8.55706 5.98366C8.68847 5.85216 8.84849 5.78641 9.03714 5.78641C9.29634 5.78641 9.51829 5.69443 9.70298 5.51047C9.88757 5.3265 9.97987 5.10532 9.97987 4.84692C9.97987 4.58852 9.88811 4.36982 9.7046 4.1908C9.52099 4.01179 9.30107 3.91521 9.04483 3.90108C8.93053 4.09873 8.78697 4.27099 8.61417 4.41788C8.44145 4.56485 8.24277 4.67943 8.01813 4.7616C7.83857 4.82577 7.66055 4.81866 7.48405 4.74027C7.30765 4.66179 7.19006 4.5329 7.13129 4.35362C7.07098 4.17406 7.08151 4.00279 7.16288 3.83979C7.24433 3.6768 7.37231 3.56006 7.54683 3.48959C7.66653 3.44459 7.76153 3.36741 7.83182 3.25806C7.90202 3.14871 7.93712 3.0277 7.93712 2.89503C7.93712 2.72313 7.87484 2.57782 7.75028 2.45911C7.62563 2.34039 7.47307 2.28104 7.29262 2.28104C7.12395 2.28104 6.97945 2.3412 6.85912 2.46154C6.73878 2.58187 6.67862 2.72637 6.67862 2.89503ZM5.32399 9.18149V2.89503C5.32399 2.72637 5.26382 2.58187 5.14349 2.46154C5.02315 2.3412 4.87865 2.28104 4.70999 2.28104C4.52953 2.28104 4.37698 2.34017 4.25233 2.45843C4.12776 2.5766 4.06548 2.72128 4.06548 2.89247C4.06548 3.02288 4.09964 3.14376 4.16795 3.25509C4.23617 3.36642 4.33018 3.44459 4.44997 3.48959C4.62449 3.56006 4.75341 3.6768 4.83676 3.83979C4.9201 4.00279 4.93162 4.17406 4.87132 4.35362C4.80715 4.53326 4.68722 4.66224 4.51153 4.74054C4.33585 4.81875 4.15818 4.82577 3.97854 4.7616C3.75398 4.67943 3.5553 4.56485 3.38249 4.41788C3.20969 4.27099 3.06618 4.09873 2.95197 3.90108C2.69447 3.91521 2.47522 4.01147 2.29423 4.18986C2.11323 4.36833 2.02273 4.58528 2.02273 4.84071C2.02273 5.10415 2.11503 5.32763 2.29963 5.51114C2.48431 5.69466 2.70626 5.78641 2.96547 5.78641C3.15411 5.78641 3.31414 5.85216 3.44554 5.98366C3.57704 6.11515 3.64278 6.27522 3.64278 6.46386C3.64278 6.65242 3.57704 6.81244 3.44554 6.94394C3.31414 7.07543 3.15411 7.14118 2.96547 7.14118C2.8103 7.14118 2.66067 7.12633 2.51658 7.09663C2.37248 7.06684 2.23411 7.0222 2.10144 6.9627C2.07327 7.02301 2.05311 7.08074 2.04096 7.13591C2.02881 7.19109 2.02273 7.24882 2.02273 7.30912C2.02273 7.56833 2.11476 7.79023 2.29882 7.97483C2.48278 8.15942 2.70396 8.25172 2.96236 8.25172C3.11897 8.25172 3.2636 8.2173 3.39627 8.14844C3.52893 8.07959 3.63968 7.98333 3.72851 7.85967C3.83885 7.70316 3.98511 7.61108 4.16727 7.58345C4.34944 7.55591 4.51878 7.59731 4.67529 7.70766C4.83181 7.818 4.92514 7.96425 4.95529 8.14642C4.98544 8.32859 4.94535 8.49792 4.835 8.65444C4.75481 8.76946 4.66422 8.8709 4.56324 8.95874C4.46226 9.04658 4.35286 9.1207 4.23505 9.18109C4.24405 9.33202 4.30079 9.45942 4.40529 9.56329C4.50978 9.66724 4.63592 9.71922 4.7837 9.71922C4.93878 9.71922 5.06757 9.66796 5.17008 9.56545C5.27269 9.46293 5.32399 9.33495 5.32399 9.18149Z" fill="var(--fill-0, #C0C6CF)"/>
</g>
</svg>
