<svg preserveAspectRatio="none" width="100%" height="100%" overflow="visible" style="display: block;" viewBox="0 0 12 12" fill="none" xmlns="http://www.w3.org/2000/svg">
<g id="magnifying-glass-m">
<path id="Path" fill-rule="evenodd" clip-rule="evenodd" d="M8.66667 5C8.66667 7.02504 7.02504 8.66667 5 8.66667C2.97496 8.66667 1.33333 7.02504 1.33333 5C1.33333 2.97496 2.97496 1.33333 5 1.33333C7.02504 1.33333 8.66667 2.97496 8.66667 5ZM8.18655 8.85321C7.32137 9.56951 6.21096 10 5 10C2.23858 10 0 7.76142 0 5C0 2.23858 2.23858 0 5 0C7.76142 0 10 2.23858 10 5C10 6.06945 9.66424 7.06048 9.09238 7.87343L11.6095 10.3905L10.6667 11.3333L8.18655 8.85321Z" fill="var(--fill-0, #C0C6CF)"/>
</g>
</svg>
