<svg width="12" height="12" viewBox="0 0 12 12" fill="none" xmlns="http://www.w3.org/2000/svg">
<path d="M1.75 9.30825C1.19817 8.79336 0.768542 8.19345 0.461125 7.50852C0.153708 6.82349 0 6.10551 0 5.35456C0 3.86716 0.520479 2.60288 1.56144 1.56173C2.6024 0.520576 3.86643 0 5.35354 0C6.59274 0 7.69072 0.364826 8.64748 1.09448C9.60434 1.82413 10.2272 2.77424 10.516 3.94479L11.2814 6.96573C11.337 7.17602 11.2985 7.36638 11.166 7.53681C11.0335 7.70724 10.8568 7.79246 10.6359 7.79246H9.54246V9.38204C9.54246 9.74944 9.41315 10.0625 9.15454 10.3212C8.89583 10.5798 8.58278 10.7091 8.21538 10.7091H7.20913V11.2123C7.20913 11.3985 7.14511 11.5557 7.01706 11.6837C6.88902 11.8118 6.73186 11.8758 6.54558 11.8758C6.3594 11.8758 6.20229 11.8118 6.07425 11.6837C5.94611 11.5557 5.88204 11.3985 5.88204 11.2123V10.0456C5.88204 9.8594 5.94611 9.70229 6.07425 9.57425C6.20229 9.44611 6.3594 9.38204 6.54558 9.38204H8.21538V7.12892C8.21538 6.94274 8.27945 6.78563 8.40758 6.65758C8.53563 6.52945 8.69274 6.46538 8.87892 6.46538H9.77652L9.23971 4.27481C9.0161 3.40633 8.54438 2.69792 7.82454 2.14958C7.10471 1.60125 6.28138 1.32708 5.35456 1.32708C4.24224 1.32708 3.29292 1.71539 2.50658 2.492C1.72025 3.26871 1.32708 4.21317 1.32708 5.3254C1.32708 5.8994 1.44443 6.44661 1.67913 6.96704C1.91382 7.48738 2.24758 7.94704 2.68042 8.34604L3.07708 8.71354V11.2123C3.07708 11.3985 3.01301 11.5557 2.88488 11.6837C2.75683 11.8118 2.59972 11.8758 2.41354 11.8758C2.22726 11.8758 2.0701 11.8118 1.94206 11.6837C1.81402 11.5557 1.75 11.3985 1.75 11.2123V9.30825ZM5.31971 8.38279C5.49656 8.38279 5.6438 8.32354 5.76144 8.20502C5.87908 8.08661 5.9379 7.9398 5.9379 7.76461C5.9379 7.58941 5.87849 7.4426 5.75969 7.32419C5.64098 7.20567 5.49413 7.14642 5.31913 7.14642C5.14413 7.14642 4.99742 7.20563 4.879 7.32404C4.76068 7.44236 4.70152 7.58902 4.70152 7.76402C4.70152 7.93902 4.76073 8.08588 4.87915 8.20458C4.99766 8.32339 5.14451 8.38279 5.31971 8.38279ZM5.36346 3.33885C5.56733 3.33885 5.73645 3.39427 5.87081 3.5051C6.00517 3.61603 6.07235 3.75803 6.07235 3.93108C6.07235 4.07964 6.0322 4.22212 5.9519 4.35852C5.87159 4.49483 5.7157 4.68354 5.48421 4.92465C5.29482 5.12609 5.15647 5.30624 5.06917 5.4651C4.98196 5.62387 4.92261 5.80397 4.89111 6.00542C4.87166 6.13044 4.90671 6.23987 4.99625 6.33369C5.08589 6.42741 5.19896 6.47427 5.33546 6.47427C5.45096 6.47427 5.55776 6.43436 5.65586 6.35454C5.75405 6.27463 5.82006 6.16681 5.8539 6.03108C5.8854 5.91442 5.93391 5.7996 5.99944 5.68663C6.06497 5.57365 6.16924 5.44192 6.31225 5.29142C6.60946 4.96981 6.80609 4.71917 6.90215 4.5395C6.9982 4.35983 7.04623 4.15703 7.04623 3.93108C7.04623 3.51303 6.88489 3.15962 6.56221 2.87087C6.23953 2.58222 5.83994 2.4379 5.36346 2.4379C5.054 2.4379 4.76146 2.51208 4.48583 2.66044C4.21031 2.8088 3.9864 3.01306 3.81413 3.27323C3.74413 3.38445 3.73469 3.50165 3.78583 3.62483C3.83707 3.74811 3.92311 3.83751 4.04396 3.89302C4.1579 3.94397 4.26883 3.95067 4.37675 3.91315C4.48457 3.87562 4.5832 3.79993 4.67265 3.68608C4.76472 3.57496 4.87064 3.48931 4.99042 3.42912C5.1102 3.36894 5.23454 3.33885 5.36346 3.33885Z" fill="#777E8B"/>
</svg>
