<svg width="14" height="14" viewBox="0 0 14 14" fill="none" xmlns="http://www.w3.org/2000/svg">
<g clip-path="url(#clip0_24574_27373)">
<path d="M9.66821 4.33475C6.89936 1.56591 3.46006 0.516013 1.98632 1.98976C0.938084 3.03799 1.16658 5.08062 2.38226 7.1691M4.33132 9.67165C7.10017 12.4405 10.5395 13.4904 12.0132 12.0166C13.0552 10.9747 12.8356 8.95006 11.6389 6.87458" stroke="#777E8B" stroke-width="1.55556"/>
<path d="M12.1204 1.87601C12.6518 2.40737 12.8474 3.43167 12.4001 4.8971C11.9639 6.32571 10.9613 7.9751 9.46671 9.46981C7.97189 10.9646 6.32203 11.9677 4.8933 12.4039C3.42788 12.8512 2.40357 12.6556 1.87222 12.1242C1.34101 11.5928 1.14596 10.5691 1.59324 9.10383C2.02943 7.67505 3.03175 6.02462 4.52663 4.52973C6.02141 3.03504 7.67137 2.0332 9.10004 1.59703C10.5653 1.14975 11.589 1.3448 12.1204 1.87601Z" stroke="#777E8B" stroke-width="1.55556"/>
<circle cx="7.0001" cy="7.00035" r="1.35484" fill="#777E8B"/>
</g>
<defs>
<clipPath id="clip0_24574_27373">
<rect width="14" height="14" fill="white"/>
</clipPath>
</defs>
</svg>
