<svg width="14" height="14" viewBox="0 0 14 14" fill="none" xmlns="http://www.w3.org/2000/svg">
<path d="M6.22222 0H8.55556V4.68587C7.65055 4.77573 6.83682 5.17584 6.22222 5.77834V0Z" fill="#777E8B"/>
<path fill-rule="evenodd" clip-rule="evenodd" d="M13.1555 12.0556L12.0556 13.1555L10.3374 11.3039C9.16138 11.929 7.66859 11.7462 6.67781 10.7554C5.46285 9.54048 5.46285 7.57063 6.67781 6.35567C7.89278 5.1407 9.86262 5.1407 11.0776 6.35567C12.1363 7.41442 12.2725 9.04641 11.486 10.2526L13.1555 12.0556ZM7.77776 7.45561C8.38524 6.84813 9.37016 6.84813 9.97764 7.45561C10.5851 8.06309 10.5851 9.04802 9.97764 9.6555C9.37016 10.263 8.38524 10.263 7.77776 9.6555C7.17027 9.04802 7.17027 8.06309 7.77776 7.45561Z" fill="#777E8B"/>
<path d="M5.05555 8.55556C5.05555 7.94709 5.1953 7.37125 5.44444 6.8584V2.66667H3.11111V10H5.33264C5.15389 9.55343 5.05555 9.06598 5.05555 8.55556Z" fill="#777E8B"/>
<path d="M2.33333 5.11111H0V10H2.33333V5.11111Z" fill="#777E8B"/>
</svg>
