<svg preserveAspectRatio="none" width="100%" height="100%" overflow="visible" style="display: block;" viewBox="0 0 16 16" fill="none" xmlns="http://www.w3.org/2000/svg">
<g id="Attach" clip-path="url(#clip0_161_2437)">
<path id="Vector 591 (Stroke)" d="M5.48564 6.74366L3.60678 8.62252C3.60301 8.62664 3.59355 8.63665 3.58038 8.6526C3.55383 8.68474 3.51269 8.73915 3.46621 8.81219C3.37199 8.9603 3.26651 9.17235 3.21455 9.43214C3.12283 9.89076 3.15458 10.698 4.22856 11.772C5.30254 12.846 6.10978 12.8777 6.5684 12.786C6.82819 12.734 7.04024 12.6286 7.18835 12.5343C7.26139 12.4878 7.31579 12.4467 7.34794 12.4202C7.36388 12.407 7.3739 12.3975 7.37801 12.3938L9.25688 10.5149L10.514 11.772L8.62834 13.6576L7.9998 13.0291C8.60016 13.6294 8.62692 13.6566 8.62772 13.6582L8.60931 13.6766C8.60094 13.6846 8.59034 13.6942 8.57801 13.7055C8.55328 13.7281 8.52029 13.7567 8.4798 13.7902C8.39902 13.8569 8.28635 13.9435 8.14343 14.0345C7.85942 14.2152 7.44283 14.424 6.91704 14.5292C5.80431 14.7517 4.41166 14.4692 2.97148 13.0291C1.53131 11.5889 1.24879 10.1962 1.47134 9.08349C1.5765 8.55771 1.78533 8.14111 1.96607 7.85711C2.05703 7.71419 2.14364 7.60151 2.21036 7.52074C2.24382 7.48024 2.27244 7.44726 2.29507 7.42253C2.30635 7.4102 2.3159 7.3996 2.32392 7.39123L2.34233 7.37281C2.34394 7.37361 2.37113 7.40038 2.97148 8.00074L2.34294 7.3722L4.22856 5.48658L5.48564 6.74366ZM10.514 6.74366L6.42845 10.8292L5.17137 9.57209L9.25688 5.48658L10.514 6.74366ZM13.0281 2.97242C14.4683 4.4126 14.7508 5.80525 14.5283 6.91798C14.4231 7.44377 14.2143 7.86036 14.0335 8.14437C13.9426 8.28729 13.856 8.39996 13.7892 8.48074C13.7558 8.52123 13.7272 8.55422 13.7045 8.57894C13.6932 8.59127 13.6837 8.60188 13.6757 8.61025L13.6573 8.62866C13.6557 8.62786 13.6285 8.60109 13.0281 8.00074L13.6567 8.62928L11.771 10.5149L10.514 9.25782L12.3928 7.37895C12.3966 7.37484 12.406 7.36482 12.4192 7.34887C12.4458 7.31673 12.4869 7.26233 12.5334 7.18928C12.6276 7.04118 12.7331 6.82913 12.785 6.56934C12.8768 6.11072 12.845 5.30348 11.771 4.2295C10.6971 3.15552 9.88982 3.12377 9.4312 3.21549C9.17141 3.26745 8.95936 3.37292 8.81125 3.46715C8.73821 3.51363 8.6838 3.55477 8.65166 3.58132C8.63572 3.59449 8.6257 3.60395 8.62159 3.60771L6.74272 5.48658L5.48564 4.2295L7.37126 2.34388L7.9998 2.97242C7.39944 2.37207 7.37268 2.34488 7.37187 2.34327L7.39029 2.32485C7.39866 2.31684 7.40926 2.30729 7.42159 2.29601C7.44632 2.27338 7.4793 2.24476 7.5198 2.2113C7.60057 2.14457 7.71325 2.05796 7.85617 1.967C8.14018 1.78627 8.55677 1.57743 9.08256 1.47228C10.1953 1.24973 11.5879 1.53225 13.0281 2.97242Z" fill="var(--fill-0, #777E8B)"/>
</g>
<defs>
<clipPath id="clip0_161_2437">
<rect width="16" height="16" fill="white"/>
</clipPath>
</defs>
</svg>
