<svg preserveAspectRatio="none" width="100%" height="100%" overflow="visible" style="display: block;" viewBox="0 0 14 14" fill="none" xmlns="http://www.w3.org/2000/svg">
<g id="Deep Dive Icon" clip-path="url(#clip0_161_2416)">
<path id="Ellipse 258" d="M9.66827 4.33505C6.89942 1.5662 3.46012 0.516312 1.98637 1.99005C0.938139 3.03829 1.16664 5.08092 2.38231 7.1694M4.33137 9.67195C7.10022 12.4408 10.5395 13.4907 12.0133 12.0169C13.0553 10.9749 12.8357 8.95036 11.6389 6.87488" stroke="var(--stroke-0, #777E8B)" stroke-width="1.55556"/>
<path id="Ellipse 635" d="M12.1205 1.87577C12.6518 2.40712 12.8475 3.43143 12.4002 4.89685C11.964 6.32547 10.9614 7.97485 9.46676 9.46957C7.97195 10.9644 6.32209 11.9674 4.89336 12.4036C3.42793 12.851 2.40363 12.6553 1.87227 12.124C1.34106 11.5926 1.14601 10.5688 1.59329 9.10359C2.02948 7.67481 3.0318 6.02437 4.52668 4.52949C6.02147 3.0348 7.67143 2.03295 9.10009 1.59679C10.5653 1.14951 11.5891 1.34456 12.1205 1.87577Z" stroke="var(--stroke-0, #777E8B)" stroke-width="1.55556"/>
<circle id="Ellipse 634" cx="6.99999" cy="6.99999" r="1.35484" fill="var(--fill-0, #777E8B)"/>
</g>
<defs>
<clipPath id="clip0_161_2416">
<rect width="14" height="14" fill="white"/>
</clipPath>
</defs>
</svg>
